<svg width="32" height="32" viewBox="0 0 32 32" fill="none" xmlns="http://www.w3.org/2000/svg">
<path d="M32 0H0L2.92174 28.751L16 32L29.113 28.7203L32 0Z" fill="#EE5948"/>
<path d="M7.75359 23.9035L5.8626 5.79866H15.2727L15.0626 9.46856H10.7302L10.9753 13.0161H14.0569L13.8468 16.686H11.1854L11.8507 24.9128L7.75359 23.9035Z" fill="#141414"/>
<path d="M24.2438 23.9341L26.1374 5.79866H16.3325L16.1221 9.47476H21.2632L21.0177 13.0283L20.8073 16.7044L20.3865 21.0851L15.9331 22.1267L12.6061 21.4L12.9567 25.2599L15.9331 25.9866L20.1411 24.945L24.2438 23.9341Z" fill="#141414"/>
<path d="M29.0687 2.36242H16.1221V29.6376L26.652 27.0575L29.0687 2.36242Z" fill="white" fill-opacity="0.2"/>
</svg>
