<svg width="24" height="24" viewBox="0 0 24 24" fill="none" xmlns="http://www.w3.org/2000/svg">
<path d="M22.4217 20.325L18.203 10.1063C18.1251 9.91754 17.9929 9.7562 17.8232 9.64267C17.6535 9.52915 17.4539 9.46855 17.2498 9.46855C17.0456 9.46855 16.846 9.52915 16.6763 9.64267C16.5067 9.7562 16.3745 9.91754 16.2966 10.1063L12.0778 20.325C12.0254 20.4503 11.9982 20.5848 11.9978 20.7206C11.9975 20.8565 12.024 20.991 12.0758 21.1166C12.1276 21.2422 12.2038 21.3563 12.2998 21.4524C12.3959 21.5484 12.51 21.6246 12.6356 21.6764C12.7611 21.7283 12.8957 21.7548 13.0316 21.7545C13.1674 21.7541 13.3019 21.727 13.4272 21.6745C13.5525 21.6221 13.6662 21.5454 13.7618 21.4489C13.8574 21.3523 13.933 21.2379 13.9842 21.112L14.8434 19.0312H19.6561L20.5153 21.112C20.5932 21.3008 20.7254 21.4623 20.8951 21.5758C21.0649 21.6894 21.2645 21.75 21.4688 21.75C21.6382 21.7499 21.805 21.708 21.9545 21.6281C22.1039 21.5482 22.2313 21.4327 22.3255 21.2918C22.4197 21.1509 22.4777 20.989 22.4944 20.8204C22.5111 20.6518 22.486 20.4816 22.4213 20.325H22.4217ZM15.6952 16.9688L17.25 13.2023L18.8048 16.9688H15.6952ZM12.555 16.0744C12.7152 15.8531 12.7811 15.5772 12.7381 15.3074C12.6951 15.0376 12.5468 14.7959 12.3258 14.6353C12.3164 14.6283 11.6227 14.1136 10.6153 13.0073C12.4739 10.4911 13.5267 7.62844 13.9561 6.28125H15.4688C15.7423 6.28125 16.0046 6.1726 16.198 5.9792C16.3914 5.78581 16.5 5.5235 16.5 5.25C16.5 4.9765 16.3914 4.71419 16.198 4.5208C16.0046 4.3274 15.7423 4.21875 15.4688 4.21875H10.0312V3.28125C10.0313 3.00775 9.9226 2.74544 9.7292 2.55205C9.53581 2.35865 9.2735 2.25 9 2.25C8.7265 2.25 8.46419 2.35865 8.2708 2.55205C8.0774 2.74544 7.96875 3.00775 7.96875 3.28125V4.21875H2.53125C2.25775 4.21875 1.99544 4.3274 1.80205 4.5208C1.60865 4.71419 1.5 4.9765 1.5 5.25C1.5 5.5235 1.60865 5.78581 1.80205 5.9792C1.99544 6.1726 2.25775 6.28125 2.53125 6.28125H11.7773C11.3311 7.54453 10.5094 9.53906 9.25594 11.3606C7.78359 9.40688 7.23656 8.14266 7.23234 8.13234C7.12456 7.88324 6.92291 7.68668 6.67114 7.58529C6.41937 7.4839 6.13778 7.48585 5.88743 7.59072C5.63709 7.6956 5.43819 7.89494 5.33387 8.14551C5.22954 8.39608 5.22821 8.67767 5.33016 8.92922C5.35734 8.99391 6.01219 10.5338 7.80797 12.8634C7.85109 12.9192 7.89375 12.9736 7.93641 13.028C6.09703 15.1069 4.29234 16.3964 3.53719 16.8127C3.29706 16.9436 3.1188 17.1646 3.04162 17.427C2.96444 17.6894 2.99465 17.9717 3.12563 18.2119C3.2566 18.452 3.47759 18.6303 3.74 18.7074C4.0024 18.7846 4.28472 18.7544 4.52484 18.6234C4.62609 18.5681 6.80297 17.363 9.28875 14.6114C10.3444 15.7402 11.07 16.2727 11.1136 16.3036C11.2233 16.3833 11.3476 16.4405 11.4794 16.4721C11.6113 16.5037 11.748 16.509 11.8819 16.4876C12.0158 16.4663 12.1442 16.4188 12.2597 16.3478C12.3751 16.2768 12.4755 16.1837 12.555 16.0739V16.0744Z" fill="url(#paint0_linear_25_336)"/>
<defs>
<linearGradient id="paint0_linear_25_336" x1="11.9997" y1="2.25" x2="11.9997" y2="21.7545" gradientUnits="userSpaceOnUse">
<stop stop-color="#EE5948"/>
<stop offset="1" stop-color="#F2A159"/>
</linearGradient>
</defs>
</svg>
