<svg width="360" height="75" viewBox="0 0 360 75" fill="none" xmlns="http://www.w3.org/2000/svg">
<path d="M66 0H0L6.02609 67.3851L33 75L60.0457 67.3132L66 0Z" fill="#EE5948"/>
<path d="M15.9918 56.0239L12.0916 13.5906H31.5L31.0666 22.1919H22.1309L22.6365 30.5066H28.9924L28.559 39.1079H23.0699L24.4422 58.3893L15.9918 56.0239Z" fill="#141414"/>
<path d="M50.0029 56.0955L53.9084 13.5906H33.6859L33.2519 22.2065H43.8554L43.3491 30.5351L42.9151 39.151L42.0472 49.4182L32.8621 51.8594L26 50.1563L26.7232 59.203L32.8621 60.906L41.541 58.4649L50.0029 56.0955Z" fill="#141414"/>
<path d="M59.9542 5.53691H33.2519V69.4631L54.9698 63.416L59.9542 5.53691Z" fill="white" fill-opacity="0.2"/>
<path d="M100.684 24.728V29.66H90.388V34.988H98.092V39.776H90.388V50H84.232V24.728H100.684Z" fill="#141414"/>
<path d="M122.855 39.632C122.855 40.208 122.819 40.808 122.747 41.432H108.815C108.911 42.68 109.308 43.64 110.004 44.312C110.724 44.96 111.599 45.284 112.632 45.284C114.168 45.284 115.236 44.636 115.836 43.34H122.388C122.052 44.66 121.439 45.848 120.551 46.904C119.687 47.96 118.595 48.788 117.275 49.388C115.955 49.988 114.48 50.288 112.848 50.288C110.88 50.288 109.127 49.868 107.591 49.028C106.055 48.188 104.856 46.988 103.992 45.428C103.128 43.868 102.696 42.044 102.696 39.956C102.696 37.868 103.115 36.044 103.955 34.484C104.819 32.924 106.02 31.724 107.556 30.884C109.092 30.044 110.856 29.624 112.848 29.624C114.792 29.624 116.52 30.032 118.032 30.848C119.544 31.664 120.72 32.828 121.56 34.34C122.424 35.852 122.855 37.616 122.855 39.632ZM116.556 38.012C116.556 36.956 116.196 36.116 115.476 35.492C114.756 34.868 113.855 34.556 112.775 34.556C111.743 34.556 110.867 34.856 110.147 35.456C109.451 36.056 109.02 36.908 108.852 38.012H116.556Z" fill="#141414"/>
<path d="M132.259 23.36V50H126.103V23.36H132.259Z" fill="#141414"/>
<path d="M139.816 27.824C138.736 27.824 137.848 27.512 137.152 26.888C136.48 26.24 136.144 25.448 136.144 24.512C136.144 23.552 136.48 22.76 137.152 22.136C137.848 21.488 138.736 21.164 139.816 21.164C140.872 21.164 141.736 21.488 142.408 22.136C143.104 22.76 143.452 23.552 143.452 24.512C143.452 25.448 143.104 26.24 142.408 26.888C141.736 27.512 140.872 27.824 139.816 27.824ZM142.876 29.912V50H136.72V29.912H142.876Z" fill="#141414"/>
<path d="M153.493 32.756C154.093 31.82 154.921 31.064 155.977 30.488C157.033 29.912 158.269 29.624 159.685 29.624C161.341 29.624 162.841 30.044 164.185 30.884C165.529 31.724 166.585 32.924 167.353 34.484C168.145 36.044 168.541 37.856 168.541 39.92C168.541 41.984 168.145 43.808 167.353 45.392C166.585 46.952 165.529 48.164 164.185 49.028C162.841 49.868 161.341 50.288 159.685 50.288C158.293 50.288 157.057 50 155.977 49.424C154.921 48.848 154.093 48.104 153.493 47.192V59.576H147.337V29.912H153.493V32.756ZM162.277 39.92C162.277 38.384 161.845 37.184 160.981 36.32C160.141 35.432 159.097 34.988 157.849 34.988C156.625 34.988 155.581 35.432 154.717 36.32C153.877 37.208 153.457 38.42 153.457 39.956C153.457 41.492 153.877 42.704 154.717 43.592C155.581 44.48 156.625 44.924 157.849 44.924C159.073 44.924 160.117 44.48 160.981 43.592C161.845 42.68 162.277 41.456 162.277 39.92Z" fill="#141414"/>
<path d="M190.707 39.632C190.707 40.208 190.671 40.808 190.599 41.432H176.667C176.763 42.68 177.159 43.64 177.855 44.312C178.575 44.96 179.451 45.284 180.483 45.284C182.019 45.284 183.087 44.636 183.687 43.34H190.239C189.903 44.66 189.291 45.848 188.403 46.904C187.539 47.96 186.447 48.788 185.127 49.388C183.807 49.988 182.331 50.288 180.699 50.288C178.731 50.288 176.979 49.868 175.443 49.028C173.907 48.188 172.707 46.988 171.843 45.428C170.979 43.868 170.547 42.044 170.547 39.956C170.547 37.868 170.967 36.044 171.807 34.484C172.671 32.924 173.871 31.724 175.407 30.884C176.943 30.044 178.707 29.624 180.699 29.624C182.643 29.624 184.371 30.032 185.883 30.848C187.395 31.664 188.571 32.828 189.411 34.34C190.275 35.852 190.707 37.616 190.707 39.632ZM184.407 38.012C184.407 36.956 184.047 36.116 183.327 35.492C182.607 34.868 181.707 34.556 180.627 34.556C179.595 34.556 178.719 34.856 177.999 35.456C177.303 36.056 176.871 36.908 176.703 38.012H184.407Z" fill="#141414"/>
<path d="M200.36 39.92C200.36 37.856 200.744 36.044 201.512 34.484C202.304 32.924 203.372 31.724 204.716 30.884C206.06 30.044 207.56 29.624 209.216 29.624C210.536 29.624 211.736 29.9 212.816 30.452C213.92 31.004 214.784 31.748 215.408 32.684V23.36H221.564V50H215.408V47.12C214.832 48.08 214.004 48.848 212.924 49.424C211.868 50 210.632 50.288 209.216 50.288C207.56 50.288 206.06 49.868 204.716 49.028C203.372 48.164 202.304 46.952 201.512 45.392C200.744 43.808 200.36 41.984 200.36 39.92ZM215.408 39.956C215.408 38.42 214.976 37.208 214.112 36.32C213.272 35.432 212.24 34.988 211.016 34.988C209.792 34.988 208.748 35.432 207.884 36.32C207.044 37.184 206.624 38.384 206.624 39.92C206.624 41.456 207.044 42.68 207.884 43.592C208.748 44.48 209.792 44.924 211.016 44.924C212.24 44.924 213.272 44.48 214.112 43.592C214.976 42.704 215.408 41.492 215.408 39.956Z" fill="#141414"/>
<path d="M244.953 39.632C244.953 40.208 244.917 40.808 244.845 41.432H230.913C231.009 42.68 231.405 43.64 232.101 44.312C232.821 44.96 233.697 45.284 234.729 45.284C236.265 45.284 237.333 44.636 237.933 43.34H244.485C244.149 44.66 243.537 45.848 242.649 46.904C241.785 47.96 240.693 48.788 239.373 49.388C238.053 49.988 236.577 50.288 234.945 50.288C232.977 50.288 231.225 49.868 229.689 49.028C228.153 48.188 226.953 46.988 226.089 45.428C225.225 43.868 224.793 42.044 224.793 39.956C224.793 37.868 225.213 36.044 226.053 34.484C226.917 32.924 228.117 31.724 229.653 30.884C231.189 30.044 232.953 29.624 234.945 29.624C236.889 29.624 238.617 30.032 240.129 30.848C241.641 31.664 242.817 32.828 243.657 34.34C244.521 35.852 244.953 37.616 244.953 39.632ZM238.653 38.012C238.653 36.956 238.293 36.116 237.573 35.492C236.853 34.868 235.953 34.556 234.873 34.556C233.841 34.556 232.965 34.856 232.245 35.456C231.549 36.056 231.117 36.908 230.949 38.012H238.653Z" fill="#141414"/>
<path d="M271.67 24.728V41.936C271.67 44.6 270.914 46.652 269.402 48.092C267.914 49.532 265.898 50.252 263.354 50.252C260.69 50.252 258.554 49.496 256.946 47.984C255.338 46.472 254.534 44.324 254.534 41.54H260.654C260.654 42.596 260.87 43.4 261.302 43.952C261.734 44.48 262.358 44.744 263.174 44.744C263.918 44.744 264.494 44.504 264.902 44.024C265.31 43.544 265.514 42.848 265.514 41.936V24.728H271.67Z" fill="#141414"/>
<path d="M295.578 39.632C295.578 40.208 295.542 40.808 295.47 41.432H281.538C281.634 42.68 282.03 43.64 282.726 44.312C283.446 44.96 284.322 45.284 285.354 45.284C286.89 45.284 287.958 44.636 288.558 43.34H295.11C294.774 44.66 294.162 45.848 293.274 46.904C292.41 47.96 291.318 48.788 289.998 49.388C288.678 49.988 287.202 50.288 285.57 50.288C283.602 50.288 281.85 49.868 280.314 49.028C278.778 48.188 277.578 46.988 276.714 45.428C275.85 43.868 275.418 42.044 275.418 39.956C275.418 37.868 275.838 36.044 276.678 34.484C277.542 32.924 278.742 31.724 280.278 30.884C281.814 30.044 283.578 29.624 285.57 29.624C287.514 29.624 289.242 30.032 290.754 30.848C292.266 31.664 293.442 32.828 294.282 34.34C295.146 35.852 295.578 37.616 295.578 39.632ZM289.278 38.012C289.278 36.956 288.918 36.116 288.198 35.492C287.478 34.868 286.578 34.556 285.498 34.556C284.466 34.556 283.59 34.856 282.87 35.456C282.174 36.056 281.742 36.908 281.574 38.012H289.278Z" fill="#141414"/>
<path d="M306.998 50.288C305.246 50.288 303.686 49.988 302.318 49.388C300.95 48.788 299.87 47.972 299.078 46.94C298.286 45.884 297.842 44.708 297.746 43.412H303.83C303.902 44.108 304.226 44.672 304.802 45.104C305.378 45.536 306.086 45.752 306.926 45.752C307.694 45.752 308.282 45.608 308.69 45.32C309.122 45.008 309.338 44.612 309.338 44.132C309.338 43.556 309.038 43.136 308.438 42.872C307.838 42.584 306.866 42.272 305.522 41.936C304.082 41.6 302.882 41.252 301.922 40.892C300.962 40.508 300.134 39.92 299.438 39.128C298.742 38.312 298.394 37.22 298.394 35.852C298.394 34.7 298.706 33.656 299.33 32.72C299.978 31.76 300.914 31.004 302.138 30.452C303.386 29.9 304.862 29.624 306.566 29.624C309.086 29.624 311.066 30.248 312.506 31.496C313.97 32.744 314.81 34.4 315.026 36.464H309.338C309.242 35.768 308.93 35.216 308.402 34.808C307.898 34.4 307.226 34.196 306.386 34.196C305.666 34.196 305.114 34.34 304.73 34.628C304.346 34.892 304.154 35.264 304.154 35.744C304.154 36.32 304.454 36.752 305.054 37.04C305.678 37.328 306.638 37.616 307.934 37.904C309.422 38.288 310.634 38.672 311.57 39.056C312.506 39.416 313.322 40.016 314.018 40.856C314.738 41.672 315.11 42.776 315.134 44.168C315.134 45.344 314.798 46.4 314.126 47.336C313.478 48.248 312.53 48.968 311.282 49.496C310.058 50.024 308.63 50.288 306.998 50.288Z" fill="#141414"/>
<path d="M338.736 29.912V50H332.58V47.264C331.956 48.152 331.104 48.872 330.024 49.424C328.968 49.952 327.792 50.216 326.496 50.216C324.96 50.216 323.604 49.88 322.428 49.208C321.252 48.512 320.34 47.516 319.692 46.22C319.044 44.924 318.72 43.4 318.72 41.648V29.912H324.84V40.82C324.84 42.164 325.188 43.208 325.884 43.952C326.58 44.696 327.516 45.068 328.692 45.068C329.892 45.068 330.84 44.696 331.536 43.952C332.232 43.208 332.58 42.164 332.58 40.82V29.912H338.736Z" fill="#141414"/>
<path d="M351.33 50.288C349.578 50.288 348.018 49.988 346.65 49.388C345.282 48.788 344.202 47.972 343.41 46.94C342.618 45.884 342.174 44.708 342.078 43.412H348.162C348.234 44.108 348.558 44.672 349.134 45.104C349.71 45.536 350.418 45.752 351.258 45.752C352.026 45.752 352.614 45.608 353.022 45.32C353.454 45.008 353.67 44.612 353.67 44.132C353.67 43.556 353.37 43.136 352.77 42.872C352.17 42.584 351.198 42.272 349.854 41.936C348.414 41.6 347.214 41.252 346.254 40.892C345.294 40.508 344.466 39.92 343.77 39.128C343.074 38.312 342.726 37.22 342.726 35.852C342.726 34.7 343.038 33.656 343.662 32.72C344.31 31.76 345.246 31.004 346.47 30.452C347.718 29.9 349.194 29.624 350.898 29.624C353.418 29.624 355.398 30.248 356.838 31.496C358.302 32.744 359.142 34.4 359.358 36.464H353.67C353.574 35.768 353.262 35.216 352.734 34.808C352.23 34.4 351.558 34.196 350.718 34.196C349.998 34.196 349.446 34.34 349.062 34.628C348.678 34.892 348.486 35.264 348.486 35.744C348.486 36.32 348.786 36.752 349.386 37.04C350.01 37.328 350.97 37.616 352.266 37.904C353.754 38.288 354.966 38.672 355.902 39.056C356.838 39.416 357.654 40.016 358.35 40.856C359.07 41.672 359.442 42.776 359.466 44.168C359.466 45.344 359.13 46.4 358.458 47.336C357.81 48.248 356.862 48.968 355.614 49.496C354.39 50.024 352.962 50.288 351.33 50.288Z" fill="#141414"/>
</svg>
