<svg width="191" height="39" viewBox="0 0 191 39" fill="none" xmlns="http://www.w3.org/2000/svg">
<path d="M16.684 3.728V8.66H6.38799V13.988H14.092V18.776H6.38799V29H0.231995V3.728H16.684Z" fill="#141414"/>
<path d="M38.8555 18.632C38.8555 19.208 38.8195 19.808 38.7475 20.432H24.8155C24.9115 21.68 25.3075 22.64 26.0035 23.312C26.7235 23.96 27.5995 24.284 28.6315 24.284C30.1675 24.284 31.2355 23.636 31.8355 22.34H38.3875C38.0515 23.66 37.4395 24.848 36.5515 25.904C35.6875 26.96 34.5955 27.788 33.2755 28.388C31.9555 28.988 30.4795 29.288 28.8475 29.288C26.8795 29.288 25.1275 28.868 23.5915 28.028C22.0555 27.188 20.8555 25.988 19.9915 24.428C19.1275 22.868 18.6955 21.044 18.6955 18.956C18.6955 16.868 19.1155 15.044 19.9555 13.484C20.8195 11.924 22.0195 10.724 23.5555 9.884C25.0915 9.044 26.8555 8.624 28.8475 8.624C30.7915 8.624 32.5195 9.032 34.0315 9.848C35.5435 10.664 36.7195 11.828 37.5595 13.34C38.4235 14.852 38.8555 16.616 38.8555 18.632ZM32.5555 17.012C32.5555 15.956 32.1955 15.116 31.4755 14.492C30.7555 13.868 29.8555 13.556 28.7755 13.556C27.7435 13.556 26.8675 13.856 26.1475 14.456C25.4515 15.056 25.0195 15.908 24.8515 17.012H32.5555Z" fill="#141414"/>
<path d="M48.2591 2.36V29H42.1031V2.36H48.2591Z" fill="#141414"/>
<path d="M55.8163 6.824C54.7363 6.824 53.8483 6.512 53.1523 5.888C52.4803 5.24 52.1443 4.448 52.1443 3.512C52.1443 2.552 52.4803 1.76 53.1523 1.136C53.8483 0.488002 54.7363 0.164001 55.8163 0.164001C56.8723 0.164001 57.7363 0.488002 58.4083 1.136C59.1043 1.76 59.4523 2.552 59.4523 3.512C59.4523 4.448 59.1043 5.24 58.4083 5.888C57.7363 6.512 56.8723 6.824 55.8163 6.824ZM58.8763 8.912V29H52.7203V8.912H58.8763Z" fill="#141414"/>
<path d="M69.4935 11.756C70.0935 10.82 70.9215 10.064 71.9775 9.488C73.0335 8.912 74.2695 8.624 75.6855 8.624C77.3415 8.624 78.8415 9.044 80.1855 9.884C81.5295 10.724 82.5855 11.924 83.3535 13.484C84.1455 15.044 84.5415 16.856 84.5415 18.92C84.5415 20.984 84.1455 22.808 83.3535 24.392C82.5855 25.952 81.5295 27.164 80.1855 28.028C78.8415 28.868 77.3415 29.288 75.6855 29.288C74.2935 29.288 73.0575 29 71.9775 28.424C70.9215 27.848 70.0935 27.104 69.4935 26.192V38.576H63.3375V8.912H69.4935V11.756ZM78.2775 18.92C78.2775 17.384 77.8455 16.184 76.9815 15.32C76.1415 14.432 75.0975 13.988 73.8495 13.988C72.6255 13.988 71.5815 14.432 70.7175 15.32C69.8775 16.208 69.4575 17.42 69.4575 18.956C69.4575 20.492 69.8775 21.704 70.7175 22.592C71.5815 23.48 72.6255 23.924 73.8495 23.924C75.0735 23.924 76.1175 23.48 76.9815 22.592C77.8455 21.68 78.2775 20.456 78.2775 18.92Z" fill="#141414"/>
<path d="M106.707 18.632C106.707 19.208 106.671 19.808 106.599 20.432H92.6671C92.7631 21.68 93.1591 22.64 93.8551 23.312C94.5751 23.96 95.4511 24.284 96.4831 24.284C98.0191 24.284 99.0871 23.636 99.6871 22.34H106.239C105.903 23.66 105.291 24.848 104.403 25.904C103.539 26.96 102.447 27.788 101.127 28.388C99.8071 28.988 98.3311 29.288 96.6991 29.288C94.7311 29.288 92.9791 28.868 91.4431 28.028C89.9071 27.188 88.7071 25.988 87.8431 24.428C86.9791 22.868 86.5471 21.044 86.5471 18.956C86.5471 16.868 86.9671 15.044 87.8071 13.484C88.6711 11.924 89.8711 10.724 91.4071 9.884C92.9431 9.044 94.7071 8.624 96.6991 8.624C98.6431 8.624 100.371 9.032 101.883 9.848C103.395 10.664 104.571 11.828 105.411 13.34C106.275 14.852 106.707 16.616 106.707 18.632ZM100.407 17.012C100.407 15.956 100.047 15.116 99.3271 14.492C98.6071 13.868 97.7071 13.556 96.6271 13.556C95.5951 13.556 94.7191 13.856 93.9991 14.456C93.3031 15.056 92.8711 15.908 92.7031 17.012H100.407Z" fill="#141414"/>
<path d="M133.424 3.728V20.936C133.424 23.6 132.668 25.652 131.156 27.092C129.668 28.532 127.652 29.252 125.108 29.252C122.444 29.252 120.308 28.496 118.7 26.984C117.092 25.472 116.288 23.324 116.288 20.54H122.408C122.408 21.596 122.624 22.4 123.056 22.952C123.488 23.48 124.112 23.744 124.928 23.744C125.672 23.744 126.248 23.504 126.656 23.024C127.064 22.544 127.268 21.848 127.268 20.936V3.728H133.424Z" fill="#141414"/>
<path d="M141.276 29.288C140.196 29.288 139.308 28.976 138.612 28.352C137.94 27.704 137.604 26.912 137.604 25.976C137.604 25.016 137.94 24.212 138.612 23.564C139.308 22.916 140.196 22.592 141.276 22.592C142.332 22.592 143.196 22.916 143.868 23.564C144.564 24.212 144.912 25.016 144.912 25.976C144.912 26.912 144.564 27.704 143.868 28.352C143.196 28.976 142.332 29.288 141.276 29.288Z" fill="#141414"/>
<path d="M155.141 16.328C155.141 13.832 155.681 11.612 156.761 9.668C157.841 7.7 159.341 6.176 161.261 5.096C163.205 3.992 165.401 3.44 167.849 3.44C170.849 3.44 173.417 4.232 175.553 5.816C177.689 7.4 179.117 9.56 179.837 12.296H173.069C172.565 11.24 171.845 10.436 170.909 9.884C169.997 9.332 168.953 9.056 167.777 9.056C165.881 9.056 164.345 9.716 163.169 11.036C161.993 12.356 161.405 14.12 161.405 16.328C161.405 18.536 161.993 20.3 163.169 21.62C164.345 22.94 165.881 23.6 167.777 23.6C168.953 23.6 169.997 23.324 170.909 22.772C171.845 22.22 172.565 21.416 173.069 20.36H179.837C179.117 23.096 177.689 25.256 175.553 26.84C173.417 28.4 170.849 29.18 167.849 29.18C165.401 29.18 163.205 28.64 161.261 27.56C159.341 26.456 157.841 24.932 156.761 22.988C155.681 21.044 155.141 18.824 155.141 16.328Z" fill="#141414"/>
<path d="M186.487 29.288C185.407 29.288 184.519 28.976 183.823 28.352C183.151 27.704 182.815 26.912 182.815 25.976C182.815 25.016 183.151 24.212 183.823 23.564C184.519 22.916 185.407 22.592 186.487 22.592C187.543 22.592 188.407 22.916 189.079 23.564C189.775 24.212 190.123 25.016 190.123 25.976C190.123 26.912 189.775 27.704 189.079 28.352C188.407 28.976 187.543 29.288 186.487 29.288Z" fill="#141414"/>
</svg>
