<svg width="522" height="522" viewBox="0 0 522 522" fill="none" xmlns="http://www.w3.org/2000/svg">
<path d="M491 0H31L73 469L261 522L449.5 468.5L491 0Z" fill="#EE5948"/>
<path d="M142.189 389.526L115 94H259L255.979 153.904H184.986L188.51 211.811H232.818L229.797 271.715H191.531L201.098 406L142.189 389.526Z" fill="#141414"/>
<path d="M379.5 390L406.5 94H264L261 154H337L333.5 212L330.5 272L324.5 343.5L261 360.5L201 345.5L206 408.5L261 423.5L321 406.5L379.5 390Z" fill="#141414"/>
<path d="M448.5 39H261V483L413.5 441L448.5 39Z" fill="white" fill-opacity="0.2"/>
</svg>
