<svg width="353" height="400" viewBox="0 0 353 400" fill="none" xmlns="http://www.w3.org/2000/svg">
<path d="M352.49 0H0L32.1839 359.387L176.245 400L320.69 359.004L352.49 0Z" fill="#EE5948"/>
<path d="M85.2022 298.488L64.3679 72.0306H174.713L172.398 117.934H117.997L120.698 162.307H154.65L152.335 208.211H123.013L130.343 311.111L85.2022 298.488Z" fill="#141414"/>
<path d="M267.05 298.851L287.74 72.0306H178.544L176.245 118.008H234.483L231.801 162.452L229.502 208.429L224.904 263.218L176.245 276.245L130.268 264.751L134.1 313.027L176.245 324.521L222.222 311.494L267.05 298.851Z" fill="#141414"/>
<path d="M319.923 29.8851H176.245V370.115L293.103 337.931L319.923 29.8851Z" fill="white" fill-opacity="0.2"/>
</svg>
