<svg width="24" height="24" viewBox="0 0 24 24" fill="none" xmlns="http://www.w3.org/2000/svg">
<path d="M20.6794 21.2569C21.4069 20.8275 22.3763 20.0288 22.3482 18.6863C22.3238 17.5463 20.7113 15.7331 16.5769 15.0394C12.4425 14.3456 10.1607 14.6756 8.30816 14.8744C6.45566 15.0731 5.29878 15.6675 5.29878 15.6675L6.98628 19.0744L20.6794 21.2569Z" fill="#04C1EA"/>
<path d="M13.3463 18.1425L17.1469 19.1512L20.1919 20.4956C20.1919 20.4956 20.5707 21.2944 20.3813 21.5044C20.1919 21.7144 17.3982 23.3119 12.4444 23.3306C6.96193 23.3512 4.0463 21.9244 3.03755 21.1894C2.0288 20.4544 5.03255 16.2337 5.03255 16.2337L7.53942 15.2025L10.3876 15.4781L12.0676 16.3181L13.3463 18.1425Z" fill="#F5C876"/>
<path d="M10.8731 17.7994L6.62625 17.5744C6.62625 17.5744 7.18125 16.5094 7.38562 16.0312C7.61812 15.4875 7.66125 15.1744 7.66125 15.1744C7.66125 15.1744 7.1625 15.0356 6.31125 15.2512C5.46 15.4669 2.43375 16.4381 1.69312 18.3094C1.04812 19.9406 3.05062 21.2025 3.05062 21.2025C3.05062 21.2025 4.40063 20.2819 4.905 19.8C5.69438 19.0462 6.12187 18.4144 6.12187 18.4144L10.9181 18.5831L11.2031 18.3937L10.8731 17.7994Z" fill="#F2A159"/>
<path d="M20.0006 18.4781C20.5369 19.0144 19.9162 19.6744 19.9162 19.6744C19.9162 19.6744 21.1331 19.9481 21.0919 20.6606C21.0712 21.0169 20.5875 21.4369 20.3775 21.5006C20.1675 21.5644 20.2087 21.1556 19.9162 20.8706C19.1606 20.1356 16.83 19.9669 15.2137 19.8C13.5975 19.6331 12.9337 19.0744 12.6319 18.8756C11.8331 18.3506 12.1275 16.8638 11.2575 16.2019C9.85875 15.1369 6.66 15.2831 6.6825 15.165C6.705 15.0469 9.33375 14.4563 11.7431 15.4313C13.3537 16.0838 13.3237 17.4469 14.4562 17.8256C15.5887 18.2044 19.14 17.6175 20.0006 18.4781Z" fill="#DCECF6"/>
<path d="M17.7394 18.9844C18.0788 19.1081 17.7581 19.4662 17.6006 19.5562C17.2856 19.7362 16.86 19.9256 16.86 19.9256C16.86 19.9256 17.7544 20.6044 17.5069 20.9587C17.325 21.2194 15.6413 20.5725 15.6413 20.5725C15.6244 20.5725 14.6025 21.4069 14.1675 21.4087C13.8431 21.4106 14.0625 20.1994 14.0625 20.1994C14.0625 20.1994 12.6956 19.9087 12.6956 19.4925C12.6956 19.1681 13.3744 19.2619 13.3744 19.2619C13.3744 19.2619 17.4 18.8606 17.7394 18.9844Z" fill="#EE594A"/>
<path d="M14.8425 18.1519C15.1969 18.12 15.8494 18.8531 15.8494 18.8531C15.8494 18.8531 17.7712 18.7219 17.8031 19.0462C17.835 19.3706 16.785 19.5094 16.785 19.6931C16.785 19.8769 17.6325 20.5556 17.5556 20.7712C17.4787 20.9869 15.8006 20.0156 15.675 20.0625C15.5494 20.1094 14.2781 21.3375 14.0512 21.1275C13.8562 20.9475 14.0569 19.8919 14.0569 19.8919C14.0569 19.8919 12.7612 19.5844 12.7781 19.3519C12.7931 19.1212 14.4112 18.9506 14.4112 18.9506C14.4112 18.9506 14.5031 18.1819 14.8425 18.1519Z" fill="#F79228"/>
<path d="M12.4481 3.34313L13.335 3.27938L12.4312 9.89063C12.4312 9.89063 11.5256 17.34 11.4637 17.7863C11.385 18.3563 11.2443 18.66 10.7418 18.5831C10.2393 18.5063 10.29 18.0131 10.3218 17.6287C10.3537 17.2444 11.1581 10.2544 11.1581 10.2544L12.4481 3.34313Z" fill="#4EA4B0"/>
<path d="M13.1738 2.22C13.1738 2.22 17.4544 2.68875 20.2106 5.74875C22.4344 8.21812 22.7963 10.4362 22.6388 10.4606C22.3744 10.5019 21.7013 10.2769 20.9663 10.5825C20.2313 10.8881 19.8038 11.52 19.5581 11.52C19.3125 11.52 18.4163 10.9087 17.1506 11.0925C15.8869 11.2762 15.03 12.03 14.7638 12.03C14.4975 12.03 13.4381 11.235 11.8069 11.1525C10.3181 11.0775 9.31876 11.4375 9.11438 11.4169C8.91001 11.3962 8.5125 10.1344 6.94125 9.66562C5.37 9.19687 4.85063 9.58125 4.62563 9.58125C4.40063 9.58125 4.27876 8.48062 3.15751 8.05125C2.03625 7.62375 1.60688 7.80562 1.36313 7.76625C1.11938 7.72687 2.26126 4.995 6.30938 3.14437C9.65626 1.61625 13.1738 2.22 13.1738 2.22Z" fill="#EE5948"/>
<path d="M12.9768 2.52938C12.9768 2.52938 15.7631 3.36375 17.7018 6.40313C19.2881 8.88938 19.3125 10.7269 19.2112 10.8281C19.11 10.9294 18.1706 10.4606 17.0287 10.5637C15.8868 10.665 14.9231 11.5144 14.8668 11.3194C14.7956 11.0719 14.8181 8.87813 14.5593 7.03125C14.0775 3.57563 12.9525 2.82375 12.9525 2.82375C12.9525 2.82375 11.4525 3.82875 10.3143 6.66563C9.59997 8.445 9.2456 10.2731 9.09747 10.5056C9.03185 10.6088 8.41497 9.66375 7.13247 9.2475C5.9456 8.86125 4.90872 9.15938 4.76622 9.07875C4.62372 8.99625 5.95497 6.10875 8.17685 4.4475C10.6856 2.56688 12.9768 2.52938 12.9768 2.52938Z" fill="#FEFEFE"/>
<path d="M13.23 0.733124C13.7775 0.808124 13.6031 1.60875 13.5619 2.07937C13.5431 2.2875 13.4981 3.08625 12.9488 3.04312C12.4913 3.0075 12.555 2.39812 12.5963 1.95C12.6356 1.5 12.6544 0.654374 13.23 0.733124Z" fill="#4EA4B0"/>
</svg>
